<svg width="25" height="24" viewBox="0 0 25 24" fill="none" xmlns="http://www.w3.org/2000/svg">
<path fill-rule="evenodd" clip-rule="evenodd" d="M12.9546 4.25644C14.0799 3.13067 15.6064 2.49817 17.1982 2.49817C18.7899 2.49817 20.3164 3.13063 21.4416 4.25636C22.5674 5.38164 23.2 6.90829 23.2 8.49999C23.2 10.0917 22.5675 11.6183 21.4417 12.7435C21.4417 12.7436 21.4417 12.7435 21.4417 12.7435L12.6017 21.5835C12.4065 21.7788 12.0899 21.7788 11.8946 21.5835L3.05461 12.7435C0.710963 10.3999 0.710963 6.60009 3.05461 4.25644C5.39826 1.91279 9.19807 1.91279 11.5417 4.25644L12.2482 4.96289L12.9546 4.25644C12.9546 4.25647 12.9546 4.25641 12.9546 4.25644ZM17.1982 3.49817C15.8717 3.49817 14.5996 4.02528 13.6618 4.96346L12.6017 6.02355C12.508 6.11732 12.3808 6.16999 12.2482 6.16999C12.1156 6.16999 11.9884 6.11732 11.8946 6.02355L10.8346 4.96355C8.88149 3.01042 5.71484 3.01042 3.76172 4.96355C1.80859 6.91667 1.80859 10.0833 3.76172 12.0364L12.2482 20.5229L20.7346 12.0364C21.6728 11.0987 22.2 9.82648 22.2 8.49999C22.2 7.17351 21.6729 5.90138 20.7347 4.96363C19.7969 4.02544 18.5247 3.49817 17.1982 3.49817Z" fill="currentColor"/>
</svg>
