<svg width="101" height="11" viewBox="0 0 101 11" fill="none" xmlns="http://www.w3.org/2000/svg">
<path d="M6.95349 7.21855C6.74832 7.36993 6.50345 7.48841 6.22549 7.58714C5.94752 7.68587 5.69603 7.73194 5.46439 7.73194C4.71654 7.73194 4.07457 7.47524 3.55173 6.96843C3.0289 6.45504 2.77079 5.82975 2.77079 5.09257C2.77079 4.34881 3.0289 3.72352 3.55173 3.21013C4.07457 2.69015 4.71654 2.43346 5.46439 2.43346C5.69603 2.43346 5.95414 2.48611 6.23872 2.58484C6.5233 2.68357 6.76818 2.81521 6.98658 2.97976C7.17189 3.1114 7.38367 3.09165 7.48294 2.95343L8.48891 1.48565C8.57495 1.3606 8.53524 1.16314 8.3764 1.05124C7.98593 0.768219 7.51603 0.53785 6.96672 0.360137C6.41741 0.175842 5.91443 0.0836945 5.46439 0.0836945C4.76286 0.0836945 4.09443 0.215334 3.4657 0.478612C2.83697 0.735309 2.3009 1.09074 1.84424 1.53831C1.3942 1.9793 1.03682 2.51244 0.772092 3.13114C0.507364 3.74985 0.375 4.40146 0.375 5.09257C0.375 5.78368 0.507364 6.43529 0.772092 7.054C1.03682 7.6727 1.3942 8.20584 1.84424 8.64683C2.3009 9.08782 2.83697 9.44325 3.4657 9.70653C4.09443 9.96323 4.76286 10.0949 5.46439 10.0949C5.92767 10.0949 6.43065 10.0093 6.97334 9.83159C7.52265 9.65387 7.97269 9.43009 8.33007 9.16023C8.49553 9.04833 8.56833 8.85087 8.48891 8.72582L7.5028 7.23829C7.39691 7.08691 7.15865 7.08032 6.95349 7.21855Z" fill="#414141"/>
<path d="M9.72651 9.54198C9.72651 9.75919 9.85888 9.88424 10.0773 9.88424H16.4307C16.6491 9.88424 16.7881 9.7526 16.7881 9.54198V8.12028C16.7881 7.85041 16.6028 7.6727 16.305 7.6727H12.1024V6.03379H15.2924C15.5307 6.03379 15.6763 5.90215 15.6763 5.68495V4.43437C15.6763 4.20401 15.5307 4.07237 15.2924 4.07237H12.1024V2.47953H16.305C16.5366 2.47953 16.6558 2.36105 16.6558 2.13069V0.616834C16.6558 0.399629 16.5234 0.26799 16.305 0.26799H10.0773C9.85888 0.26799 9.72651 0.399629 9.72651 0.616834V9.54198Z" fill="#414141"/>
<path d="M24.174 4.7898C24.7233 4.42779 25.0675 3.74985 25.0675 3.04558C25.0675 2.17018 24.7829 1.48565 24.2204 0.998588C23.6578 0.511522 22.8703 0.26799 21.851 0.26799H18.3765C18.2044 0.26799 18.1184 0.353555 18.1184 0.518104V9.63413C18.1184 9.79868 18.2044 9.88424 18.3765 9.88424H22.129C23.1945 9.88424 24.0218 9.62755 24.6108 9.12073C25.2065 8.61392 25.5043 7.90307 25.5043 6.98818C25.5043 6.50769 25.3852 6.0667 25.1469 5.6652C24.9087 5.2637 24.5844 4.9741 24.174 4.7898ZM21.8246 2.40713C22.3474 2.40713 22.6717 2.71648 22.6717 3.21671C22.6717 3.71694 22.3474 4.03287 21.8246 4.03287H20.5208V2.40713H21.8246ZM20.5208 7.7451V5.81659H22.0959C22.7114 5.81659 23.1019 6.1786 23.1019 6.76439C23.1019 7.36335 22.7114 7.7451 22.0959 7.7451H20.5208Z" fill="#414141"/>
<path d="M26.6956 9.54198C26.6956 9.75919 26.8279 9.88424 27.0463 9.88424H33.3998C33.6182 9.88424 33.7572 9.7526 33.7572 9.54198V8.12028C33.7572 7.85041 33.5719 7.6727 33.2741 7.6727H29.0715V6.03379H32.2615C32.4997 6.03379 32.6453 5.90215 32.6453 5.68495V4.43437C32.6453 4.20401 32.4997 4.07237 32.2615 4.07237H29.0715V2.47953H33.2741C33.5057 2.47953 33.6248 2.36105 33.6248 2.13069V0.616834C33.6248 0.399629 33.4925 0.26799 33.2741 0.26799H27.0463C26.8279 0.26799 26.6956 0.399629 26.6956 0.616834V9.54198Z" fill="#414141"/>
<path d="M37.1457 0.26799H36.2853H35.4316C35.2264 0.26799 35.0874 0.419375 35.0874 0.623416V9.54198C35.0874 9.75919 35.2132 9.89082 35.4316 9.89082H37.1258C37.3575 9.89082 37.4898 9.75919 37.4898 9.54198V6.92236H38.648C39.6805 6.92236 40.5144 6.61959 41.1563 6.02063C41.7983 5.41509 42.1226 4.61209 42.1226 3.61163C42.1226 2.59801 41.7983 1.78842 41.1563 1.18288C40.5144 0.57076 39.6805 0.26799 38.648 0.26799H37.1457ZM37.4898 4.75689V2.43346H38.5488C38.8863 2.43346 39.1709 2.54535 39.3893 2.76914C39.6143 2.98634 39.7268 3.26278 39.7268 3.59846C39.7268 3.93414 39.6143 4.21059 39.3893 4.42779C39.1709 4.645 38.8863 4.75689 38.5488 4.75689H37.4898Z" fill="#414141"/>
<path d="M49.3894 0.26799H46.431C45.3986 0.26799 44.5581 0.57076 43.9161 1.18288C43.2742 1.78842 42.9565 2.59801 42.9565 3.60505C42.9565 4.80955 43.5058 5.80342 44.4522 6.36289L42.7579 9.48932C42.652 9.6802 42.7712 9.89082 42.983 9.89082H44.9618C45.1537 9.89082 45.2398 9.825 45.3655 9.59464L46.7818 6.88287H47.7679V9.54198C47.7679 9.75919 47.9003 9.89082 48.1319 9.89082H49.8262C50.0446 9.89082 50.1703 9.75919 50.1703 9.54198V0.616834C50.1703 0.412793 50.0313 0.26799 49.8262 0.26799H49.3894ZM46.5303 4.82271C46.1928 4.82271 45.9082 4.70423 45.6832 4.46728C45.4648 4.22375 45.3523 3.93414 45.3523 3.59188C45.3523 3.24962 45.4648 2.97318 45.6832 2.75597C45.9016 2.53877 46.1862 2.42687 46.5303 2.42687H47.7679V4.82271H46.5303Z" fill="#414141"/>
<path d="M58.0393 0.26799C57.8739 0.26799 57.7879 0.353555 57.7879 0.524686V3.84858H54.1677V0.524686C54.1677 0.353555 54.0817 0.26799 53.9162 0.26799H52.0499C51.8778 0.26799 51.7918 0.353555 51.7918 0.524686V9.63413C51.7918 9.80526 51.8778 9.89082 52.0499 9.89082H53.9162C54.0817 9.89082 54.1677 9.80526 54.1677 9.63413V6.01405H57.7879V9.63413C57.7879 9.80526 57.8739 9.89082 58.0393 9.89082H59.9123C60.0778 9.89082 60.1638 9.80526 60.1638 9.63413V0.524686C60.1638 0.353555 60.0778 0.26799 59.9123 0.26799H58.0393Z" fill="#414141"/>
<path d="M61.3418 5.09915C61.3418 5.78368 61.4742 6.43529 61.7323 7.054C61.997 7.66612 62.3544 8.19926 62.7978 8.64025C63.2479 9.08124 63.7839 9.43667 64.4061 9.69995C65.0282 9.95664 65.6834 10.0883 66.3783 10.0883C67.3048 10.0883 68.152 9.87108 68.9197 9.43009C69.694 8.9891 70.2962 8.38355 70.7397 7.62005C71.1831 6.85654 71.4081 6.01405 71.4081 5.09915C71.4081 4.40805 71.2757 3.75643 71.011 3.13773C70.7529 2.51244 70.3955 1.9793 69.9455 1.53831C69.5021 1.09732 68.966 0.741891 68.3439 0.485194C67.7284 0.221916 67.0732 0.0902764 66.3783 0.0902764C65.6834 0.0902764 65.0282 0.221916 64.4061 0.485194C63.7839 0.741891 63.2479 1.09732 62.7978 1.53831C62.3544 1.9793 61.997 2.51244 61.7323 3.13773C61.4742 3.75643 61.3418 4.40805 61.3418 5.09915ZM63.7376 5.09915C63.7376 4.36197 63.9957 3.74327 64.5053 3.23646C65.0149 2.72964 65.6437 2.47295 66.3783 2.47295C67.1129 2.47295 67.735 2.72964 68.2446 3.23646C68.7542 3.74327 69.0123 4.36197 69.0123 5.09915C69.0123 5.82975 68.7542 6.44187 68.2446 6.94869C67.735 7.4555 67.1129 7.70561 66.3783 7.70561C65.637 7.70561 65.0083 7.4555 64.4987 6.94869C63.9891 6.44187 63.7376 5.82975 63.7376 5.09915Z" fill="#414141"/>
<path d="M78.3043 0.261408C78.119 0.261408 77.9667 0.425957 77.9667 0.616834V3.3286C77.9667 3.82225 77.8079 4.21717 77.4968 4.51336C77.1858 4.80955 76.7755 4.96093 76.2526 4.96093C75.2136 4.96093 74.5981 4.34881 74.5981 3.31544V0.616834C74.5981 0.412793 74.4392 0.261408 74.2275 0.261408H72.5266C72.3479 0.261408 72.2023 0.425957 72.2023 0.616834V3.32202C72.2023 4.51994 72.5597 5.48091 73.2744 6.20492C73.9892 6.92236 74.9158 7.28437 76.0541 7.28437C76.7953 7.28437 77.4902 6.98818 77.9667 6.53402V9.54198C77.9667 9.73286 78.1123 9.88424 78.3043 9.88424H80.0184C80.2103 9.88424 80.3625 9.72628 80.3625 9.5354V0.616834C80.3625 0.412793 80.2235 0.261408 80.0382 0.261408H78.3043Z" fill="#414141"/>
<path d="M87.7153 4.80296L90.7928 0.722145C90.9516 0.511522 90.8855 0.287735 90.6406 0.287735H88.4632C88.2316 0.287735 88.1058 0.314063 87.9536 0.518104L85.4453 3.86833H84.3798V0.524686C84.3798 0.360137 84.2937 0.274571 84.1283 0.274571H82.2421C82.07 0.274571 81.984 0.360137 81.984 0.524686V9.62755C81.984 9.79868 82.07 9.88424 82.2421 9.88424H84.1283C84.2937 9.88424 84.3798 9.79868 84.3798 9.62755V6.11936H85.7431L88.1786 9.7526C88.2647 9.85133 88.3838 9.90399 88.5228 9.90399H90.72C90.9516 9.90399 91.0112 9.67362 90.8788 9.48274L87.7153 4.80296Z" fill="#414141"/>
<path d="M97.1926 0.583924C97.1198 0.393047 96.9411 0.261408 96.7558 0.261408H95.3594C95.1741 0.261408 94.9954 0.379883 94.9093 0.583924L91.3752 9.50249C91.2892 9.73286 91.3884 9.89082 91.6333 9.89082H93.5063C93.7114 9.89082 93.8835 9.75919 93.9364 9.57489L94.3666 8.31773H97.7221L98.1589 9.58147C98.2317 9.76577 98.3971 9.89741 98.5824 9.89741H100.462C100.72 9.89741 100.806 9.72628 100.72 9.50907L97.1926 0.583924ZM96.041 3.41417L97.0404 6.32998H95.0417L96.041 3.41417Z" fill="#414141"/>
</svg>
