<svg width="252" height="252" viewBox="0 0 252 252" fill="none" xmlns="http://www.w3.org/2000/svg">
<path d="M49.0389 45.9929L20.8038 20.6761C20.2123 20.1457 19.2771 20.2167 18.7978 20.8605C13.0795 28.4852 14.6313 39.9141 22.6084 47.0668C30.5855 54.2194 42.113 54.5227 49.0735 48.0071C49.6588 47.4583 49.6304 46.5233 49.0389 45.9929Z" fill="#FF6633"/>
<path d="M195.221 218.796L223.456 244.113C224.047 244.643 224.983 244.572 225.462 243.928C231.18 236.304 229.629 224.875 221.651 217.722C213.674 210.569 202.147 210.266 195.186 216.782C194.601 217.33 194.629 218.265 195.221 218.796Z" fill="#FF6633"/>
<path d="M227.079 95.1119L197.715 71.1138C197.1 70.611 196.169 70.7247 195.719 71.3898C190.356 79.2682 192.429 90.6141 200.725 97.3942C209.021 104.174 220.551 103.95 227.206 97.1224C227.765 96.5474 227.694 95.6147 227.079 95.1119Z" fill="#FF6633"/>
<path d="M36.5967 178.597L63.3053 151.675C63.8648 151.111 63.8411 150.173 63.2223 149.662C55.8956 143.567 44.403 144.54 36.8571 152.146C29.3113 159.753 28.427 171.25 34.5832 178.53C35.1018 179.143 36.0371 179.161 36.5967 178.597Z" fill="#FF6633"/>
<path d="M30.9153 117.323C25.3475 117.914 19.8723 109.339 18.6861 98.1699C17.4999 87.0007 21.0519 77.4669 26.6197 76.8756C32.1875 76.2843 37.6628 84.8594 38.849 96.0286C40.0352 107.198 36.4832 116.732 30.9153 117.323Z" fill="#FCA21C"/>
<path d="M216.571 136.581C222.139 135.99 227.614 144.565 228.8 155.734C229.986 166.903 226.434 176.437 220.867 177.029C215.299 177.62 209.824 169.045 208.637 157.876C207.451 146.706 211.003 137.173 216.571 136.581Z" fill="#FCA21C"/>
<path d="M155.855 30.9063C159.476 33.509 157.097 43.0123 150.541 52.1326C143.985 61.2529 135.735 66.5364 132.115 63.9337C128.494 61.3311 130.873 51.8278 137.429 42.7075C143.985 33.5872 152.235 28.3037 155.855 30.9063Z" fill="#FCA21C"/>
<path d="M101.977 185.895C97.5445 185.412 94.9367 175.969 96.1526 164.803C97.3685 153.637 101.948 144.977 106.381 145.459C110.814 145.942 113.422 155.385 112.206 166.551C110.99 177.717 106.41 186.378 101.977 185.895Z" fill="#FCA21C"/>
<path fill-rule="evenodd" clip-rule="evenodd" d="M104.33 90.6266C106.184 93.2202 105.584 96.8213 102.988 98.67C97.1432 102.833 89.2771 104.069 81.827 101.648C74.3768 99.2277 68.7409 93.6034 66.4589 86.8016C65.4452 83.7804 67.0757 80.5139 70.1007 79.5056C73.1256 78.4972 76.3995 80.129 77.4131 83.1501C78.49 86.3598 81.2994 89.3519 85.3904 90.6812C89.4828 92.0108 93.5143 91.2415 96.2713 89.2779C98.8669 87.4292 102.475 88.0331 104.33 90.6266Z" fill="#70C05B"/>
<path fill-rule="evenodd" clip-rule="evenodd" d="M146.578 161.599C144.723 159.006 145.323 155.405 147.919 153.556C153.764 149.393 161.63 148.157 169.08 150.577C176.53 152.998 182.166 158.622 184.448 165.424C185.462 168.445 183.831 171.712 180.807 172.72C177.782 173.729 174.508 172.097 173.494 169.076C172.417 165.866 169.608 162.874 165.517 161.545C161.424 160.215 157.393 160.984 154.636 162.948C152.04 164.797 148.433 164.193 146.578 161.599Z" fill="#70C05B"/>
<path fill-rule="evenodd" clip-rule="evenodd" d="M204.272 25.2244C203.762 22.0768 205.9 19.1172 209.047 18.614C216.133 17.4806 223.729 19.8674 229.329 25.3456C234.928 30.8238 237.479 38.3663 236.502 45.4738C236.068 48.6308 233.156 50.8331 229.998 50.3928C226.84 49.9525 224.632 47.0363 225.066 43.8793C225.527 40.5254 224.339 36.5967 221.264 33.5885C218.189 30.5793 214.235 29.4777 210.893 30.0123C207.746 30.5156 204.782 28.3719 204.272 25.2244Z" fill="#70C05B"/>
<path fill-rule="evenodd" clip-rule="evenodd" d="M114.699 226.053C116.953 228.308 116.951 231.959 114.693 234.207C109.608 239.271 102.051 241.779 94.305 240.611C86.5589 239.443 80.0781 234.817 76.7132 228.481C75.2185 225.666 76.2921 222.177 79.1111 220.687C81.9301 219.197 85.427 220.27 86.9216 223.085C88.5095 226.075 91.771 228.567 96.0245 229.208C100.279 229.85 104.13 228.431 106.529 226.042C108.787 223.793 112.445 223.798 114.699 226.053Z" fill="#70C05B"/>
<path d="M80.7235 29.958C79.2204 27.717 79.8186 24.6819 82.0596 23.1788L105.797 7.25758C108.038 5.7545 111.073 6.35269 112.576 8.59368L117.271 15.5932C118.774 17.8341 118.176 20.8693 115.935 22.3724L92.1975 38.2936C89.9565 39.7967 86.9213 39.1985 85.4182 36.9575L80.7235 29.958Z" fill="#1CB9FC"/>
<path d="M134.358 203.491C133.782 200.854 135.453 198.251 138.089 197.675L166.013 191.579C168.65 191.003 171.253 192.674 171.829 195.31L173.627 203.544C174.202 206.18 172.532 208.784 169.895 209.36L141.971 215.456C139.335 216.032 136.731 214.361 136.155 211.725L134.358 203.491Z" fill="#1CB9FC"/>
<path d="M162.497 125.141C160.483 126.938 157.394 126.761 155.598 124.748L136.572 103.418C134.776 101.404 134.952 98.3156 136.966 96.5194L143.256 90.9092C145.269 89.113 148.358 89.2893 150.154 91.303L169.18 112.633C170.976 114.646 170.8 117.735 168.786 119.531L162.497 125.141Z" fill="#1CB9FC"/>
<path d="M29.6592 199.558C32.3187 199.101 34.8447 200.887 35.3012 203.547L40.1369 231.717C40.5935 234.376 38.8076 236.902 36.1481 237.359L27.8415 238.785C25.182 239.241 22.656 237.455 22.1995 234.796L17.3638 206.626C16.9072 203.966 18.6931 201.44 21.3526 200.984L29.6592 199.558Z" fill="#1CB9FC"/>
</svg>
