<svg width="93" height="36" viewBox="0 0 93 36" fill="none" xmlns="http://www.w3.org/2000/svg">
<rect width="93" height="30" rx="4" fill="white"/>
<path d="M15.1346 10.2885C18.3979 10.2885 19.7297 10.756 19.7297 12.2904C19.7297 13.4178 18.4822 13.933 17.1743 14.0411V14.2334C18.9141 14.2812 20.3653 14.7851 20.3653 15.9476C20.3653 17.4821 18.5897 18.2493 15.2188 18.2493C13.5394 18.2493 12.3636 18.2016 11.2355 18.2016C11.0073 18.2016 10.9953 18.0816 10.9953 17.7938V11.5232C10.5401 11.4755 10.3477 11.4516 10 11.3554V10.2885H15.1346ZM14.895 11.6194C14.5354 11.6194 14.055 11.6313 13.8513 11.679V13.6213C14.199 13.6333 14.5951 13.6333 14.8592 13.6333C16.1432 13.6333 16.8386 13.2739 16.8386 12.5305C16.8386 11.8594 16.2142 11.6194 14.895 11.6194ZM15.0025 14.8083C14.7869 14.8083 14.2587 14.8203 13.8506 14.8322V16.8461C14.0543 16.8581 14.4146 16.87 15.0981 16.87C16.538 16.87 17.3415 16.4861 17.3415 15.7427C17.3422 15.0126 16.3462 14.8083 15.0025 14.8083Z" fill="#0093C6"/>
<path d="M33.3938 14.2208C33.3938 17.1704 31.0542 18.4894 28.0191 18.4894C24.7677 18.4894 22.6562 16.9669 22.6562 14.2208C22.6562 11.4509 24.4916 10.0007 28.0191 10.0007C31.5704 10.0007 33.3938 11.4516 33.3938 14.2208ZM28.0191 17.1108C29.6627 17.1108 30.3103 16.1519 30.3103 14.2215C30.3103 12.3031 29.6985 11.38 28.0191 11.38C26.3396 11.38 25.7398 12.3031 25.7398 14.2215C25.7398 16.1512 26.3755 17.1108 28.0191 17.1108Z" fill="#0093C6"/>
<path d="M45.3063 10.2885L45.2944 13.118C45.2944 13.382 45.2466 13.4775 44.9102 13.4775H43.0628C43.0748 12.5902 42.6428 11.4755 41.191 11.4755C39.3795 11.4755 38.8758 12.2427 38.8758 14.2208C38.8758 16.1154 39.3436 17.0623 41.2155 17.0623C42.8711 17.0623 43.3508 16.1512 43.1591 15.252L44.6706 15C46.4224 16.1028 44.9825 18.4887 41.2394 18.4887C37.3523 18.4887 35.793 16.9184 35.793 14.2202C35.793 11.7984 37.3045 10 40.7477 10C42.5114 10 43.459 10.7195 43.4709 11.5106H43.6866C43.7105 11.1147 43.8067 10.5875 43.9148 10.2878H45.3063V10.2885Z" fill="#0093C6"/>
<path d="M50.6575 14.4967L48.0663 11.5351C47.7067 11.4874 47.3702 11.427 47.0703 11.3674V10.2885H50.2859C50.538 10.2885 50.6097 10.3362 50.7298 10.492L52.9374 13.0696L54.9049 11.4867C54.6892 11.439 54.2692 11.4025 53.9931 11.3548V10.3004L56.6925 10.2885C56.9685 10.2885 57.0521 10.3965 57.0521 10.5643V11.3793L53.9208 13.813L56.6799 16.9542C57.0395 17.002 57.3998 17.0623 57.6759 17.122V18.2009H54.5804C54.3767 18.2009 54.1484 18.1167 53.9208 17.8534L51.6654 15.2997L49.4936 17.002C49.7338 17.0378 50.2972 17.0981 50.5971 17.1339V18.2009H47.5978C47.274 18.2129 47.2262 18.0809 47.2262 17.9489V17.1094L50.6575 14.4967Z" fill="#0093C6"/>
<path d="M70.3079 14.2211C70.3079 17.1707 67.9682 18.4897 64.9331 18.4897C61.6817 18.4897 59.5703 16.9672 59.5703 14.2211C59.5703 11.4512 61.4057 10.001 64.9331 10.001C68.4845 10.001 70.3079 11.4519 70.3079 14.2211ZM64.9338 17.1111C66.5774 17.1111 67.225 16.1522 67.225 14.2218C67.225 12.3034 66.6133 11.3803 64.9338 11.3803C63.2544 11.3803 62.6545 12.3034 62.6545 14.2218C62.6538 16.1515 63.2902 17.1111 64.9338 17.1111Z" fill="#0093C6"/>
<path d="M74.1105 18.2016C74.0263 18.6452 73.8584 19.6764 73.7263 20H72.167V16.8229H72.5266C73.4025 16.8229 73.942 16.0438 74.1225 14.6167C74.2067 13.9456 74.2545 12.0272 74.2187 11.5597C73.8829 11.5358 73.3906 11.4396 72.9108 11.3442V10.2885H81.6206C81.8243 10.2885 81.9325 10.3727 81.9325 10.504V16.8223H82.5682C82.9278 16.8223 83.0001 16.9065 83.0001 17.0623V20H81.4282C81.2842 19.6644 81.1283 18.6452 81.044 18.2016H74.1105V18.2016ZM74.6268 16.8468L74.7349 17.0146C75.0946 16.8349 75.6944 16.8349 76.3069 16.8349L79.0785 16.8229V11.6671H76.007C76.0189 12.0146 75.9592 14.1008 75.8869 14.5325C75.6825 15.7321 75.3706 16.5113 74.6268 16.8468Z" fill="#0093C6"/>
<path d="M46.5 35.5L41 30H52L46.5 35.5Z" fill="white"/>
</svg>
