<svg width="119" height="32" viewBox="0 0 119 32" fill="none" xmlns="http://www.w3.org/2000/svg">
<rect width="119" height="26" rx="4" fill="white"/>
<path d="M10 10.0004H17.1639V11.0045C17.1639 12.601 15.5745 13.3993 12.3956 13.3993V15.9571H10V10.0004ZM14.073 12.2708C14.5359 12.0508 14.7684 11.7429 14.7684 11.3482V10.799H12.3956V12.6014C13.0503 12.601 13.6092 12.4912 14.073 12.2708Z" fill="#AA111D"/>
<path d="M20.373 10.0006H27.537V15.9573H25.1414V12.9531C24.6142 12.9531 24.1355 12.9333 23.7043 12.8929C23.0653 13.0473 22.7775 13.3421 22.8418 13.7769L23.2256 15.957H20.8537L20.4947 13.7769L20.471 13.5965C20.471 13.0987 20.8943 12.7125 21.7409 12.4379C20.83 12.0375 20.375 11.4108 20.375 10.5583V10.0006H20.373ZM23.4639 11.8246C23.9268 12.045 24.4856 12.1552 25.1414 12.1552V10.7992H22.7696V10.9023C22.7686 11.2967 23 11.6046 23.4639 11.8246Z" fill="#AA111D"/>
<path d="M31.708 10.0006H38.4881V11.6829H36.0926V10.7988H34.1036V12.0691C35.4774 12.0691 36.6109 12.2019 37.506 12.468C38.4001 12.7341 38.8482 13.1476 38.8482 13.7081L38.8244 13.8885L38.4654 15.957H31.709V10.0006H31.708ZM36.2123 15.1591L36.4516 13.8888C36.5792 13.2078 35.7969 12.8673 34.1036 12.8673V15.1591H36.2123Z" fill="#AA111D"/>
<path d="M42.5596 10.0004H44.9551V12.352L47.3269 11.6309V10H49.6988V15.9568H47.3269V12.6779L44.9551 13.399V15.9568H42.5596V10.0004V10.0004Z" fill="#AA111D"/>
<path d="M53.8682 10.0006H56.2637V12.1548H58.6118V10.0006H61.0073V15.9573H58.6118V12.9531H56.2637V15.9573H53.8682V10.0006Z" fill="#AA111D"/>
<path d="M67.0465 10.0004L68.1246 12.6439H68.5084L69.5628 10.0004H72.7733V10.7986H71.6468L70.2334 13.8971C70.8723 13.9602 71.3718 14.0803 71.7308 14.2575C72.0899 14.435 72.2699 14.6582 72.2699 14.9271C72.2699 15.2648 71.9979 15.5281 71.4549 15.7169C70.9119 15.9058 70.1849 16 69.2749 16H67.6697C66.7587 16 66.0318 15.9058 65.4897 15.7169C64.9467 15.5281 64.6747 15.2648 64.6747 14.9271C64.6747 14.5895 64.9457 14.3262 65.4897 14.1374C66.0327 13.9485 66.7597 13.8543 67.6697 13.8543H68.0287L68.1968 13.4422H66.2325L64.6035 10.0004H67.0465V10.0004ZM68.005 15.2446H68.9396C69.6904 15.2446 70.0662 15.1387 70.0662 14.9271C70.0662 14.7156 69.6904 14.6097 68.9396 14.6097H68.005C67.2543 14.6097 66.8784 14.7156 66.8784 14.9271C66.8794 15.139 67.2543 15.2446 68.005 15.2446Z" fill="#AA111D"/>
<path d="M78.6202 10.0004V15.1589H80.4648L80.4411 10.0004H82.8366V15.1589H84.6812L84.6575 10.0004H87.0531V15.9571H76.2474L76.2236 10.0004H78.6202Z" fill="#AA111D"/>
<path d="M91.2236 10.0006H93.6192V11.9918C93.8585 11.9975 94.2018 12.012 94.6498 12.0347L95.5845 10.0006H98.6754V10.7988H97.4776L96.6873 12.3352C97.8534 12.6498 98.3806 13.1419 98.2688 13.8116L97.9098 15.9573H95.5133L95.897 13.8116L95.9208 13.6656C95.9208 13.3797 95.7289 13.1678 95.3461 13.0303C94.9624 12.8929 94.3877 12.8156 93.6212 12.7986V15.9573H91.2256V10.0006H91.2236Z" fill="#AA111D"/>
<path d="M103.082 11.773C103.976 11.4782 105.142 11.3308 106.58 11.3308L106.604 10.7986H102.124V10.0004H109V15.9571H106.604V14.0172H104.352L104.615 15.9571H102.219L101.86 13.1506C101.78 12.527 102.188 12.0678 103.082 11.773ZM104.232 13.2193H106.604V12.1291C105.805 12.1291 105.199 12.2092 104.783 12.3693C104.368 12.5295 104.184 12.7899 104.232 13.1502V13.2193Z" fill="#AA111D"/>
<path d="M59.5 31.5L54 26H65L59.5 31.5Z" fill="white"/>
</svg>
