<svg width="25" height="24" viewBox="0 0 25 24" fill="none" xmlns="http://www.w3.org/2000/svg">
<path fill-rule="evenodd" clip-rule="evenodd" d="M11.8325 1.89777C11.8324 1.89786 11.8327 1.89767 11.8325 1.89777L3.83366 5.89721L3.83255 5.89777C3.32288 6.15102 3.00045 6.6709 3.00005 7.24V16.7635C2.99608 17.3334 3.31541 17.8563 3.82416 18.113C3.82445 18.1132 3.82387 18.1129 3.82416 18.113L11.8237 22.1128C12.2462 22.3242 12.7438 22.3243 13.1663 22.1129L21.1664 18.1128L21.1675 18.1122C21.6773 17.8589 21.9997 17.3389 22 16.7697V7.24027C21.9997 6.67106 21.6773 6.15106 21.1675 5.89777L21.1664 5.89721L13.1675 1.89777C13.1674 1.89767 13.1677 1.89786 13.1675 1.89777C12.7474 1.6892 12.2527 1.6892 11.8325 1.89777ZM11.3875 1.00223C12.0883 0.654003 12.9118 0.654003 13.6125 1.00223L13.6137 1.00279L21.6125 5.00223C21.6127 5.00232 21.6124 5.00215 21.6125 5.00223C22.4618 5.42449 22.9995 6.29123 23 7.23974V16.77C22.9995 17.7184 22.4624 18.5852 21.6132 19.0074C21.613 19.0075 21.6134 19.0073 21.6132 19.0074L13.6138 23.0071C13.6138 23.0072 13.6138 23.0071 13.6138 23.0071C12.9097 23.3594 12.0806 23.3595 11.3764 23.0072C11.3764 23.0072 11.3765 23.0072 11.3764 23.0072L3.37644 19.0072L3.37506 19.0065C2.52685 18.5791 1.99413 17.708 2.00005 16.7584V7.24C2.00055 6.29154 2.53772 5.42481 3.38695 5.00253C3.38715 5.00243 3.38675 5.00263 3.38695 5.00253L11.3864 1.00279L11.3875 1.00223Z" fill="currentColor"/>
<path fill-rule="evenodd" clip-rule="evenodd" d="M2.37321 5.93639C2.4967 5.6894 2.79704 5.58929 3.04403 5.71279L12.5004 10.441L21.9568 5.71279C22.2038 5.58929 22.5041 5.6894 22.6276 5.93639C22.7511 6.18338 22.651 6.48372 22.404 6.60721L12.724 11.4472C12.5833 11.5176 12.4176 11.5176 12.2768 11.4472L2.59682 6.60721C2.34983 6.48372 2.24971 6.18338 2.37321 5.93639Z" fill="currentColor"/>
<path fill-rule="evenodd" clip-rule="evenodd" d="M12.5 10.5C12.7761 10.5 13 10.7239 13 11V22.76C13 23.0361 12.7761 23.26 12.5 23.26C12.2239 23.26 12 23.0361 12 22.76V11C12 10.7239 12.2239 10.5 12.5 10.5Z" fill="currentColor"/>
<path fill-rule="evenodd" clip-rule="evenodd" d="M7.0529 3.27639C7.17639 3.0294 7.47673 2.92929 7.72372 3.05279L17.7237 8.05279C17.9707 8.17628 18.0708 8.47662 17.9473 8.72361C17.8238 8.9706 17.5235 9.07071 17.2765 8.94721L7.2765 3.94721C7.02951 3.82372 6.9294 3.52338 7.0529 3.27639Z" fill="currentColor"/>
</svg>
