<svg width="82" height="33" viewBox="0 0 82 33" fill="none" xmlns="http://www.w3.org/2000/svg">
<rect width="82" height="27" rx="4" fill="white"/>
<path d="M18.3947 10.2947L18.4211 11.3886C18.4211 13.0612 18.2531 14.842 17.9172 16.7288H14.7475C14.9507 15.331 15.0527 13.9409 15.0527 12.5594C15.0527 12.079 15.0395 11.6029 15.0131 11.131H14.7879C14.2839 11.131 13.8636 11.1566 13.5276 11.2078V11.6199C13.5276 13.3445 13.3772 15.047 13.0765 16.7288H10.0528C10.1768 15.8107 10.2384 14.8071 10.2384 13.7174C10.2384 12.6278 10.1592 11.4868 10 10.2947H18.3947Z" fill="#D20D21"/>
<path d="M25.7686 12.8811L27.0149 12.958C27.1389 12.958 27.2313 12.9537 27.2936 12.9452L26.6701 14.0776H26.5506C26.3826 14.0776 26.1434 14.0328 25.8346 13.9424C25.5251 13.852 25.3043 13.8071 25.1715 13.8071C24.8091 13.8071 24.5216 14.0349 24.3096 14.489C24.2744 14.9096 24.248 15.3295 24.2304 15.7502C24.6903 15.8363 25.0527 15.879 25.3182 15.879H25.4378C25.8178 15.879 26.1207 15.7979 26.3459 15.6342C26.5711 15.4712 26.7325 15.1794 26.83 14.7594L28.4218 14.8235C28.2891 15.5616 28.1123 16.1964 27.8915 16.7281H21.3798C21.203 15.5701 21.1143 14.4206 21.1143 13.2797C21.1143 12.1388 21.1759 11.1438 21.2998 10.2947H28.4086C28.2495 11.2214 28.1079 11.8733 27.9839 12.2505C27.4624 12.2762 26.9848 12.2932 26.5513 12.3018C26.6217 12.1046 26.6577 11.9203 26.6577 11.7488C26.6577 11.3367 26.3393 11.131 25.7026 11.131C25.4642 11.131 25.1986 11.1566 24.9067 11.2078C24.7123 12.0228 24.5619 12.7388 24.4556 13.3566C24.8099 13.0399 25.2471 12.8811 25.7686 12.8811Z" fill="#D20D21"/>
<path d="M39.0435 16.7288H35.9802C35.8211 15.0043 35.3699 13.4733 34.6276 12.1352C34.15 13.1908 33.9116 14.1602 33.9116 15.0434C33.9116 15.6441 34.0268 16.2057 34.2564 16.7288H30.808C30.7464 16.3772 30.7148 15.9054 30.7148 15.3132C30.7148 14.721 30.7985 14.1466 30.9672 13.5886C31.6127 13.4086 32.2311 13.1018 32.8238 12.6683C33.4158 12.2356 33.8405 11.7737 34.0972 11.2847C33.9028 10.9844 33.6505 10.6541 33.3409 10.294H37.7305C38.6056 12.1217 39.0435 14.2669 39.0435 16.7288Z" fill="#D20D21"/>
<path d="M41.4702 16.7288C41.267 15.9053 41.165 14.8327 41.165 13.5118C41.165 12.1908 41.289 11.1182 41.5362 10.2947H44.8122C44.6707 11.1096 44.5775 11.8434 44.5335 12.4954C46.0805 12.6669 47.4552 13.0441 48.6582 13.6278C48.6318 14.7687 48.4902 15.8021 48.2335 16.7288H41.4702V16.7288ZM44.5078 13.3829C44.5078 14.2925 44.6186 15.1246 44.8394 15.879C45.2993 15.3303 45.5905 14.6135 45.7145 13.7303C45.325 13.5331 44.923 13.4178 44.5078 13.3829ZM52.7697 11.6071C52.7697 13.4 52.6194 15.1075 52.3186 16.7288H49.3081C49.4226 15.8883 49.4805 14.8826 49.4805 13.711C49.4805 12.5402 49.4013 11.4014 49.2421 10.2947H52.7433C52.7609 10.8783 52.7697 11.316 52.7697 11.6071Z" fill="#D20D21"/>
<path d="M60.3165 11.0797C60.0069 11.0285 59.7084 11.0029 59.4215 11.0029C59.134 11.0029 58.787 11.0498 58.3806 11.1445C58.2479 11.6847 58.1818 12.2128 58.1818 12.7274C58.1818 14.0569 58.7922 15.0783 60.012 15.79C60.8255 15.2669 61.5591 14.615 62.2134 13.8342C62.2398 14.1772 62.2618 14.7011 62.2794 15.4043C61.6251 15.9018 60.9576 16.2925 60.2768 16.5751C59.5961 16.8584 58.7474 17 57.7307 17H57.4256C56.6297 16.6655 56.0039 16.1722 55.5491 15.5203C55.0936 14.8683 54.8662 14.1822 54.8662 13.4612C54.8662 12.5004 55.2726 11.6833 56.0861 11.01C56.8996 10.3367 58.0799 10 59.6269 10C60.4932 10 61.3992 10.1075 62.3455 10.3217C62.2039 10.8619 62.0271 11.373 61.8151 11.8527C61.2583 11.9039 60.6832 11.9295 60.0913 11.9295C60.1793 11.689 60.2548 11.4057 60.3165 11.0797Z" fill="#D20D21"/>
<path d="M64.8252 16.7288C64.6132 15.8712 64.5068 14.7964 64.5068 13.5053C64.5068 12.2142 64.6352 11.1438 64.8912 10.2947H68.154C68.0125 11.0925 67.92 11.8221 67.8753 12.4826C69.4223 12.6541 70.797 13.0313 72 13.615C71.9736 14.7644 71.8364 15.8029 71.5892 16.7288H64.8252V16.7288ZM67.8489 13.3701C67.8489 14.2712 67.9596 15.1032 68.1804 15.8662C68.6492 15.2997 68.9404 14.5836 69.0556 13.7174C68.6668 13.5203 68.2648 13.405 67.8489 13.3701Z" fill="#D20D21"/>
<path d="M41 32.5L35.5 27H46.5L41 32.5Z" fill="white"/>
</svg>
