<svg width="88" height="33" viewBox="0 0 88 33" fill="none" xmlns="http://www.w3.org/2000/svg">
<rect width="88" height="27" rx="4" fill="white"/>
<path d="M11.4033 10.0775H23.1664L21.7631 16.9036H18.8033L19.9564 11.3229H14.1129L12.9598 16.9036H10L11.4033 10.0775Z" fill="#0093C6"/>
<path d="M30.8909 10.0772H34.6963L37.8292 16.9034H34.7734L33.8893 14.808H29.1415L27.1617 16.9034H24.1445L30.8909 10.0772ZM33.4096 13.7076L32.8519 12.1532L32.5256 10.9848L31.5841 12.1532L30.2194 13.7076H33.4096Z" fill="#0093C6"/>
<path d="M41.5783 10.0775H46.7098C49.2849 10.0775 51.3616 10.7536 51.3616 12.1436C51.3616 14.1808 47.6324 14.8857 44.1732 14.8857H43.5581L43.1349 16.9036H40.1553L41.5783 10.0775ZM43.8083 13.7178C46.0185 13.6984 48.2673 13.602 48.2673 12.3273C48.2673 11.5936 47.402 11.2459 46.0571 11.2459H44.3274L43.8083 13.7178Z" fill="#0093C6"/>
<path d="M54.3017 15.7262C55.7623 15.5236 56.589 15.3691 57.127 14.9249L57.396 14.7029H56.4733L52.668 10.078H55.9739L58.6459 13.6602L61.8174 10.078H65.335L60.1451 14.8092C58.1465 16.6338 57.1468 16.7113 55.1669 16.9915L54.3017 15.7262Z" fill="#0093C6"/>
<path d="M66.2383 13.9975C66.2383 11.3711 69.2179 10 74.3682 10C75.7903 10 76.8286 10.1063 78.0005 10.3378L77.0976 11.4386C75.9831 11.2747 75.2523 11.236 74.0794 11.236C71.0237 11.236 69.2931 12.2787 69.2931 13.7754C69.2931 15.1177 71.081 15.7451 73.5791 15.7451C74.6748 15.7451 75.6163 15.7163 76.6734 15.5713L77.154 16.7104C75.7508 16.9324 74.482 17 72.964 17C69.1022 17.0005 66.2383 16.1028 66.2383 13.9975Z" fill="#0093C6"/>
<path d="M44 32.5L38.5 27H49.5L44 32.5Z" fill="white"/>
</svg>
